<svg width="47" height="51" viewBox="0 0 47 51" fill="none" xmlns="http://www.w3.org/2000/svg">
<path fill-rule="evenodd" clip-rule="evenodd" d="M9.34645 17.9152C9.50016 17.8839 9.62521 17.771 9.6721 17.6208C9.71987 17.4714 9.68252 17.3073 9.57484 17.1927C8.51016 16.0602 8.11939 14.7263 8.55186 13.6278C9.05468 12.3538 10.6751 11.3143 12.4137 11.8015C12.6343 11.8632 12.8662 11.7416 12.9408 11.5245C13.5288 9.81804 15.3055 9.07641 16.6394 9.3873C18.1774 9.74683 19.2178 11.5297 19.1223 13.9118C19.1214 13.9152 19.1214 13.9187 19.1214 13.9222C19.1144 14.3495 19.0328 14.8175 18.8999 15.3047C18.86 15.4497 18.8991 15.606 19.0024 15.7163C19.1058 15.8258 19.2586 15.8744 19.4062 15.844L23.6493 14.9704C23.7075 14.9591 23.7666 14.9591 23.8248 14.9704L25.8568 15.389C26.0279 15.4246 26.2042 15.3533 26.3023 15.2083C26.3822 15.092 26.4734 14.9851 26.5768 14.8905C27.2976 14.227 28.6366 14.0333 29.6379 14.7923C29.8012 14.9157 30.0287 14.9087 30.1842 14.775C31.136 13.9543 32.4837 14.0629 33.2453 14.6786C33.7855 15.1163 34.0539 15.8466 34.007 16.689C33.9948 16.9035 34.1424 17.0945 34.3526 17.138L42.8058 18.8783C42.9413 18.9061 43.055 18.9972 43.1123 19.1223L46.7102 26.9381C46.7623 27.0509 46.7632 27.1812 46.7128 27.295C46.6624 27.4087 46.5661 27.4956 46.4471 27.5338L41.8427 28.991C41.6621 29.0483 41.5396 29.2151 41.5396 29.4052V44.7302C41.5396 44.9239 41.4111 45.095 41.2253 45.148L23.8569 50.1162C23.7787 50.1379 23.6954 50.1379 23.6172 50.1162L6.2488 45.148C6.06296 45.095 5.93444 44.9239 5.93444 44.7302V29.4052C5.93444 29.2151 5.81199 29.0483 5.63136 28.991L1.027 27.5338C0.908024 27.4956 0.811629 27.4087 0.761261 27.295C0.710893 27.1812 0.711753 27.0509 0.763858 26.9381L4.36173 19.1223C4.41904 18.9972 4.5328 18.9061 4.66827 18.8783L9.34645 17.9152ZM24.9945 26.7184C24.9051 26.5386 24.7027 26.4431 24.5064 26.4891C24.3102 26.5351 24.1712 26.7105 24.1712 26.912V48.547C24.1712 48.6833 24.2355 48.8118 24.344 48.8934C24.4526 48.9759 24.5942 49.002 24.7253 48.9647L40.3569 44.4932C40.5427 44.4402 40.6712 44.2691 40.6712 44.0755V29.955C40.6712 29.816 40.6052 29.6857 40.4932 29.6041C40.382 29.5225 40.2379 29.499 40.1059 29.5407L28.6132 33.1785C28.4091 33.2428 28.1885 33.149 28.093 32.9571L24.9945 26.7184ZM23.3028 26.912C23.3028 26.7105 23.1639 26.5351 22.9676 26.4891C22.7714 26.4431 22.569 26.5386 22.4796 26.7184L19.3811 32.9571C19.2855 33.149 19.0649 33.2428 18.8609 33.1785L7.3682 29.5407C7.2362 29.499 7.09203 29.5225 6.98087 29.6041C6.86884 29.6857 6.80286 29.816 6.80286 29.955V44.0755C6.80286 44.2691 6.93138 44.4402 7.11722 44.4932L22.7488 48.9647C22.8799 49.002 23.0215 48.9759 23.13 48.8934C23.2386 48.8118 23.3028 48.6833 23.3028 48.547V26.912ZM22.4344 28.7617V47.9712L7.67128 43.7481V30.5472L18.5986 34.0061C19.2108 34.1998 19.8726 33.9184 20.1583 33.3435L22.4344 28.7617ZM25.0397 28.7617L27.3158 33.3435C27.6015 33.9184 28.2632 34.1998 28.8755 34.0061L39.8028 30.5472V43.7481L25.0397 47.9712V28.7617ZM3.32918 42.7511C3.32918 42.5114 3.5237 42.3169 3.76339 42.3169C4.00307 42.3169 4.1976 42.5114 4.1976 42.7511V43.6195C4.1976 43.8592 4.00307 44.0537 3.76339 44.0537C3.5237 44.0537 3.32918 43.8592 3.32918 43.6195V42.7511ZM3.32918 37.5406C3.32918 37.3009 3.5237 37.1064 3.76339 37.1064C4.00307 37.1064 4.1976 37.3009 4.1976 37.5406V40.1459C4.1976 40.3855 4.00307 40.5801 3.76339 40.5801C3.5237 40.5801 3.32918 40.3855 3.32918 40.1459V37.5406ZM44.1449 37.5406C44.1449 37.7803 43.9504 37.9748 43.7107 37.9748C43.471 37.9748 43.2765 37.7803 43.2765 37.5406V34.9353C43.2765 34.6957 43.471 34.5011 43.7107 34.5011C43.9504 34.5011 44.1449 34.6957 44.1449 34.9353V37.5406ZM44.1449 32.3301C44.1449 32.5698 43.9504 32.7643 43.7107 32.7643C43.471 32.7643 43.2765 32.5698 43.2765 32.3301V31.4617C43.2765 31.222 43.471 31.0275 43.7107 31.0275C43.9504 31.0275 44.1449 31.222 44.1449 31.4617V32.3301ZM18.4093 32.1243L18.438 32.133C18.5066 32.1503 18.5448 32.146 18.5448 32.146L18.9338 31.9054L22.8469 24.028C22.9068 23.9073 22.9068 23.7657 22.8478 23.645C22.7887 23.5234 22.6776 23.4366 22.5456 23.4097L5.34392 19.8683C5.14592 19.8274 4.94619 19.9282 4.86195 20.1123L1.96403 26.4075C1.91193 26.5203 1.91104 26.6506 1.96141 26.7644C2.01178 26.8781 2.10904 26.965 2.22714 27.0023L18.4093 32.1243ZM45.24 27.0041C45.3381 26.9754 45.4241 26.9111 45.4814 26.8226C45.5613 26.6984 45.5717 26.5412 45.5101 26.4075L42.6121 20.1123C42.5279 19.9282 42.3282 19.8274 42.1302 19.8683L24.9285 23.4097C24.7965 23.4366 24.6853 23.5234 24.6263 23.645C24.5672 23.7657 24.5673 23.9073 24.6272 24.028L28.5403 31.9054C28.6358 32.0965 28.8564 32.1903 29.0605 32.126L45.2417 27.0041H45.24ZM18.3216 31.1855L2.95836 26.3232L5.5063 20.7879L21.8178 24.147L18.3216 31.1855ZM44.5157 26.3232L29.1525 31.1855L25.6563 24.147L41.9678 20.7879L44.5157 26.3232ZM18.5135 16.9148C18.378 16.9426 18.2642 17.0329 18.2069 17.1579C17.8405 17.9525 17.4071 18.7272 16.979 19.4011C16.8965 19.5322 16.7497 19.6086 16.5952 19.6025C14.8601 19.5339 12.7116 19.2248 11.2978 18.4979C11.2101 18.4527 11.1085 18.4389 11.0121 18.4588L8.97478 18.8783C8.77331 18.92 8.62827 19.098 8.62827 19.3038C8.62827 19.5096 8.77331 19.6876 8.97478 19.7293L23.6493 22.7505C23.7075 22.7618 23.7666 22.7618 23.8248 22.7505L28.8868 21.7085C29.0604 21.672 29.195 21.5348 29.2263 21.3602C29.2584 21.1857 29.1803 21.0102 29.0309 20.9156C28.0496 20.2973 27.0692 19.5192 26.6063 18.7315C26.6046 18.728 26.6028 18.7254 26.6011 18.7228C26.1573 18.0055 25.9376 17.2847 25.922 16.6325C25.9168 16.4302 25.7735 16.2583 25.5755 16.2174L23.8248 15.857C23.7666 15.8457 23.7075 15.8457 23.6493 15.857L18.5135 16.9148ZM18.9017 17.7215L23.737 16.7255L25.077 17.0016C25.1517 17.6929 25.4035 18.438 25.8603 19.1761C26.245 19.8274 26.9337 20.4848 27.7101 21.0632C27.7109 21.0632 23.737 21.8821 23.737 21.8821L16.8114 20.4562C17.1787 20.3989 17.5087 20.187 17.712 19.8665C18.1236 19.2187 18.5404 18.4814 18.9017 17.7215ZM34.0903 17.9708C33.8923 17.9299 33.6926 18.0316 33.6084 18.2148L33.4599 18.5135C33.1628 19.1014 32.5932 19.7007 31.9506 20.2452C31.7986 20.3728 31.7534 20.5873 31.8403 20.7662C31.9271 20.9451 32.1243 21.0415 32.3188 21.0015L38.4993 19.7293C38.7008 19.6876 38.8458 19.5096 38.8458 19.3038C38.8458 19.098 38.7008 18.92 38.4993 18.8783L34.0903 17.9708ZM29.5737 16.0012C28.9415 14.9843 27.7483 14.9929 27.1656 15.5296C26.8833 15.7893 26.7635 16.1749 26.7774 16.6134C26.7939 17.1249 26.9875 17.7007 27.3444 18.2738C27.3462 18.2773 27.3488 18.2808 27.3505 18.2843C27.8117 19.0763 28.8685 19.8387 29.862 20.4075C30.0044 20.4883 30.1807 20.4831 30.3171 20.3928C31.2715 19.7623 32.2788 18.9347 32.6878 18.1149C32.6896 18.1115 32.6922 18.108 32.6939 18.1036C33.0135 17.5096 33.1707 16.9226 33.1542 16.412C33.1403 15.9725 32.997 15.5956 32.6991 15.3542C32.0826 14.8549 30.8919 14.9226 30.3249 15.9769C30.2519 16.1141 30.1112 16.2009 29.9566 16.2061C29.8012 16.2105 29.6553 16.1323 29.5737 16.0012ZM34.2432 18.8887L36.2588 19.3038L33.5832 19.8544C33.8507 19.5409 34.073 19.223 34.2319 18.9113L34.2432 18.8887ZM28.8364 16.4597C29.0822 16.8549 29.519 17.0885 29.9836 17.0737C30.4482 17.0589 30.8702 16.7975 31.0899 16.3885C31.3487 15.9065 31.8707 15.8006 32.152 16.029C32.2641 16.1193 32.2814 16.2747 32.2866 16.4389C32.2988 16.8184 32.1668 17.2508 31.9288 17.6929C31.9227 17.7042 31.9167 17.7154 31.9115 17.7267C31.5893 18.3711 30.819 18.9999 30.0618 19.5183C29.2724 19.0485 28.4638 18.4701 28.1017 17.8474C28.0948 17.837 28.0887 17.8257 28.0817 17.8145C27.8169 17.3889 27.6579 16.966 27.6458 16.5865C27.6406 16.4215 27.6475 16.2661 27.7535 16.1679C28.0201 15.923 28.5472 15.9951 28.8364 16.4597ZM12.9461 12.9852C11.415 12.0186 9.79978 12.8315 9.36036 13.9465C9.14499 14.4927 9.23008 15.1041 9.54185 15.699C9.88661 16.3572 10.5041 16.9903 11.3343 17.514C11.3377 17.5166 11.3412 17.5192 11.3447 17.5218C12.4806 18.286 14.4371 18.6064 16.1184 18.708C16.279 18.7185 16.4328 18.6377 16.5161 18.4996C17.3872 17.0589 18.2365 15.2674 18.2538 13.8996C18.2538 13.8953 18.2538 13.8909 18.2538 13.8866C18.2947 12.9053 18.1253 12.0377 17.7797 11.3795C17.4679 10.7846 17.0137 10.3669 16.4423 10.2331C15.2752 9.96046 13.6877 10.8271 13.6113 12.6361C13.6052 12.7906 13.5166 12.9304 13.3794 13.0025C13.2422 13.0746 13.0772 13.0677 12.9461 12.9852ZM12.4823 13.719C12.8757 13.9674 13.3707 13.9873 13.7823 13.7711C14.194 13.5557 14.4597 13.1372 14.4797 12.6725C14.5274 11.5132 15.4966 10.9044 16.2443 11.079C16.5821 11.158 16.827 11.4316 17.0111 11.7824C17.2951 12.3252 17.4202 13.0425 17.3863 13.8501C17.3854 13.8631 17.3854 13.8753 17.3854 13.8883C17.3707 15.0598 16.6525 16.5604 15.9082 17.824C14.4441 17.718 12.8019 17.4549 11.8301 16.801C11.8197 16.7941 11.8084 16.7871 11.798 16.7802C11.1146 16.3486 10.5953 15.8379 10.3113 15.2952C10.1272 14.9443 10.0403 14.5874 10.168 14.2652C10.4494 13.5505 11.5019 13.0998 12.4823 13.719ZM26.3918 3.09908C26.4352 3.20589 26.5203 3.291 26.6263 3.33529C26.7331 3.38045 26.8529 3.38045 26.9597 3.33616C28.9371 2.51811 30.9588 3.5524 31.6753 4.98703C32.4881 6.61619 31.6588 8.84541 29.4738 10.5128C29.4712 10.5145 29.4686 10.5171 29.466 10.5189C27.9775 11.7155 25.189 12.3842 22.9668 12.6682C22.813 12.6873 22.6602 12.6239 22.5664 12.5006C21.2056 10.7212 19.7197 8.26878 19.5235 6.37476C19.5235 6.37042 19.5235 6.36694 19.5226 6.36347C19.1692 3.63576 20.1713 1.47601 21.9021 0.908059C23.4261 0.408718 25.5833 1.11821 26.3918 3.09908ZM25.8143 4.30532C25.5338 2.14903 23.5408 1.28495 22.173 1.73306V1.73393C21.5009 1.95364 20.9972 2.50161 20.6854 3.24758C20.3459 4.06129 20.2347 5.1034 20.3841 6.25753C20.3849 6.261 20.3858 6.26534 20.3858 6.26968C20.5491 7.89883 21.7631 9.95266 22.9502 11.5644C23.0449 11.6938 23.2038 11.7607 23.3627 11.7372C25.3427 11.4463 27.6571 10.8654 28.9302 9.83541C28.9328 9.83281 28.9363 9.8302 28.9398 9.82759C29.8655 9.1233 30.5281 8.31047 30.8676 7.49762C31.1785 6.75078 31.2141 6.00829 30.898 5.37521C30.2545 4.08734 28.2389 3.27798 26.5081 4.59537C26.3848 4.68916 26.2207 4.71001 26.0783 4.65008C25.935 4.59016 25.8343 4.45903 25.8143 4.30532ZM24.9537 4.41734C25.0136 4.87847 25.315 5.27273 25.7431 5.45163C26.1721 5.63052 26.6645 5.56713 27.0344 5.28576C28.2467 4.3635 29.6701 4.86023 30.1208 5.76252C30.3292 6.1811 30.2719 6.67003 30.0661 7.16329C29.7769 7.85542 29.202 8.53712 28.4135 9.1372C28.4039 9.14502 28.3935 9.15284 28.384 9.16066C27.2646 10.0655 25.262 10.5623 23.4956 10.8384C22.4492 9.38731 21.394 7.61487 21.2499 6.18284C21.249 6.17069 21.2473 6.15766 21.2456 6.1455C21.1179 5.16332 21.1978 4.27492 21.487 3.58279C21.6928 3.08953 22.0002 2.70395 22.4431 2.55893C23.4018 2.24456 24.7566 2.90716 24.9537 4.41734Z" fill="#FA5A5A"/>
</svg>
