<svg width="41" height="43" viewBox="0 0 41 43" fill="none" xmlns="http://www.w3.org/2000/svg">
<path fill-rule="evenodd" clip-rule="evenodd" d="M19.4586 13.9801C16.2642 12.579 12.5281 11.3482 9.05413 11.275C8.68968 11.2678 8.39996 10.9666 8.40709 10.602C8.41423 10.2376 8.7155 9.94784 9.08005 9.95498C11.3 10.0018 13.6144 10.4879 15.8016 11.1784C15.8917 11.2069 15.9575 11.092 15.8875 11.0287C14.6017 9.86694 13.3397 8.38786 13.3958 6.85715C13.4625 5.03536 15.3752 4.19807 17.0522 5.03441C18.5497 5.78124 19.5601 8.48188 19.9958 9.51089C20.2395 10.0864 20.463 10.6681 20.6667 11.256C20.6941 11.3351 20.8061 11.3351 20.8335 11.256C21.0643 10.5903 21.5197 9.46891 21.6096 9.25463C22.1717 7.9147 23.0971 5.70821 24.4482 5.03441C26.9464 3.7885 29.7762 6.25975 26.8848 9.72244C26.5063 10.1757 26.0756 10.6106 25.613 11.0287C25.543 11.092 25.6088 11.2069 25.6988 11.1784C27.886 10.4878 30.2005 10.0018 32.4204 9.95498C32.7848 9.94784 33.0862 10.2376 33.0933 10.602C33.1005 10.9665 32.8107 11.2678 32.4463 11.275C28.9731 11.3482 25.2355 12.579 22.0419 13.9801C21.9547 14.0184 21.9822 14.1494 22.0773 14.1494H22.4574C22.5061 14.1494 22.5458 14.189 22.5458 14.2377V21.3837C22.5458 21.4625 22.4507 21.5018 22.395 21.4461L21.2188 20.2699C20.9601 20.0112 20.5406 20.0112 20.2818 20.2699L19.1055 21.4461C19.0498 21.5018 18.9548 21.4625 18.9548 21.3837V14.2377C18.9548 14.0302 19.4714 14.2613 19.5096 14.0792C19.5182 14.0377 19.4973 13.997 19.4586 13.9801ZM21.2498 4.85843C25.1966 0.361077 32.1361 0.113743 36.3864 4.36408C38.2654 6.24307 39.4277 8.83699 39.4277 11.7002H39.4251C39.4251 18.0847 35.0231 24.7142 30.503 29.2494C30.4859 29.2666 30.4772 29.2875 30.4772 29.3117V30.9133C30.4772 30.991 30.57 31.0308 30.6264 30.9773C35.7504 26.1011 40.7502 18.814 40.7502 11.7003H40.7476C40.7476 5.234 35.5104 0.00041133 29.0504 0.00041133C25.9254 0.00041133 22.9884 1.23614 20.8123 3.3972C20.778 3.4313 20.7222 3.4313 20.6879 3.3972C16.126 -1.133 8.74593 -1.14182 4.1769 3.42731C2.06128 5.54293 0.752624 8.46782 0.752624 11.7004H0.75C0.75 18.8077 5.75074 26.107 10.8738 30.9774C10.9302 31.0309 11.023 30.991 11.023 30.9134V29.3118C11.023 29.2876 11.0144 29.2667 10.9972 29.2495C6.47637 24.7103 2.07513 18.0894 2.07513 11.7004H2.07251C2.07251 5.97527 6.71835 1.32565 12.4498 1.32565C15.4726 1.32565 18.2961 2.62739 20.2531 4.86158C20.5177 5.16338 20.9887 5.16013 21.2498 4.85843ZM17.6295 17.5701L17.6294 14.2375C17.6294 14.1888 17.5897 14.1492 17.5411 14.1492H12.2898C11.5477 14.1492 10.9382 14.7587 10.9382 15.5009V17.5955L11.0009 17.6582H17.5411C17.5898 17.6585 17.6295 17.6188 17.6295 17.5701ZM23.8709 14.2376V17.5702C23.8709 17.6189 23.9106 17.6586 23.9593 17.6586H30.4994L30.5622 17.5958V15.5012C30.5622 14.7591 29.9526 14.1495 29.2105 14.1495H23.9592C23.9106 14.1493 23.8709 14.1889 23.8709 14.2376ZM12.3483 19.0719V30.8914C12.3483 30.9464 12.3973 30.9878 12.4515 30.9785C12.6286 30.9481 12.8053 30.9148 12.9814 30.8783C13.577 30.7549 14.9717 30.115 16.2588 29.5317C19.5016 28.0624 19.8785 28.14 22.7913 28.7398C24.7099 29.135 28.0327 29.698 28.9873 31.3417C29.0325 31.4196 29.152 31.3874 29.152 31.2973V19.0719C29.152 19.0233 29.1124 18.9836 29.0637 18.9836H23.9592C23.9105 18.9836 23.8708 19.0233 23.8708 19.0719V23.1962C23.8708 23.7857 23.1541 24.0828 22.7355 23.6605L20.8125 21.7375C20.7781 21.7031 20.7221 21.7031 20.6877 21.7375L18.7605 23.6647C18.3425 24.0828 17.6295 23.7815 17.6295 23.1962L17.6294 19.0719C17.6294 19.0233 17.5897 18.9836 17.5411 18.9836H12.4364C12.388 18.9837 12.3483 19.0234 12.3483 19.0719ZM8.48254 41.7236V31.8938C8.48254 31.5201 8.17445 31.2119 7.80067 31.2119H3.64939C3.27571 31.2119 2.96751 31.5201 2.96751 31.8938V41.7236C2.96751 42.0973 3.27571 42.4055 3.64939 42.4055H7.80067C8.17445 42.4055 8.48254 42.0973 8.48254 41.7236ZM9.80778 32.7483C9.80778 32.7013 9.84451 32.6625 9.89152 32.66C11.0229 32.6011 12.1518 32.489 13.263 32.2588C14.0313 32.0996 15.471 31.4379 16.8387 30.8182C19.6699 29.5354 19.9953 29.6024 22.5099 30.1203C23.6477 30.3545 27.8445 31.0957 27.8445 32.3507C27.8445 32.6642 27.7573 33.0558 27.5364 33.2893C27.1574 33.6901 26.5716 34.0074 25.9963 33.8982L21.1874 32.9852C21.0744 32.9639 21.0099 32.9742 20.9083 32.9927L18.8222 33.372C18.4634 33.4363 18.2247 33.7794 18.289 34.1382C18.3534 34.4969 18.6964 34.7357 19.0552 34.6713L21.0444 34.3096L25.7529 35.1976C26.6601 35.3698 27.5461 35.0333 28.2179 34.458L28.4124 34.3762L28.4131 34.3772L37.074 29.6288L37.1863 29.5529C37.6142 29.2679 38.2733 29.2606 38.7783 29.4807C40.0008 30.0133 38.9447 31.29 37.6735 32.2703C37.6698 32.2731 37.6665 32.2753 37.6624 32.2776C36.8188 32.7457 35.4759 33.6201 33.9149 34.6366C29.9793 37.1994 24.6126 40.6939 22.8362 40.5975C18.5747 40.366 14.1644 39.6075 9.90873 40.2249C9.85521 40.2326 9.80768 40.1916 9.80768 40.1375V32.7483H9.80778ZM19.5186 11.9827C19.2625 11.205 18.9841 10.506 18.6704 9.76651L18.669 9.76714C18.6889 9.81478 18.7031 9.84868 18.6689 9.76714C18.1786 8.59826 17.3713 6.67341 16.4619 6.21988C15.1518 5.56654 13.7383 6.60804 15.63 8.8735C16.6042 10.0402 18.0067 11.1101 19.3837 12.0828C19.4531 12.1318 19.5454 12.0631 19.5186 11.9827ZM18.6705 9.76651C18.6021 9.60585 18.6411 9.70009 18.669 9.76714L18.6705 9.76651ZM21.9838 11.9764C21.9521 12.0706 22.0507 12.1291 22.1165 12.0827C23.5642 11.0601 26.8495 8.67769 26.7847 6.90364C26.7528 6.03162 25.8059 5.83696 25.0383 6.21977C24.129 6.67331 23.3216 8.59815 22.8313 9.76704C22.7971 9.84857 22.8114 9.81468 22.8312 9.76704L22.8298 9.76641C22.5091 10.5228 22.2502 11.1794 21.9838 11.9764ZM22.8313 9.76714C22.8592 9.70009 22.8984 9.60596 22.8299 9.76651L22.8313 9.76714Z" fill="#FA5A5A"/>
</svg>
